HIERARCHY
ROOT root
{
	OFFSET 0.000000 0.000000 0.000000
	CHANNELS 6 Xposition Yposition Zposition Zrotation Yrotation Xrotation
	JOINT lhip
	{
		OFFSET 0.058581 -0.082280 -0.017664
		CHANNELS 3 Zrotation Yrotation Xrotation
		JOINT lknee
		{
			OFFSET 0.043451 -0.386469 0.008037
			CHANNELS 3 Zrotation Yrotation Xrotation
			JOINT lankle
			{
				OFFSET -0.014790 -0.426874 -0.037428
				CHANNELS 3 Zrotation Yrotation Xrotation
				JOINT ltoe
				{
					OFFSET 0.041054 -0.060286 0.122042
					CHANNELS 3 Zrotation Yrotation Xrotation
					End Site
					{
						OFFSET 0.000000 0.000000 0.000000
					}
				}
			}
		}
	}
	JOINT rhip
	{
		OFFSET -0.060310 -0.090513 -0.013543
		CHANNELS 3 Zrotation Yrotation Xrotation
		JOINT rknee
		{
			OFFSET -0.043257 -0.383688 -0.004843
			CHANNELS 3 Zrotation Yrotation Xrotation
			JOINT rankle
			{
				OFFSET 0.019056 -0.420046 -0.034562
				CHANNELS 3 Zrotation Yrotation Xrotation
				JOINT rtoe
				{
					OFFSET -0.034840 -0.062106 0.130323
					CHANNELS 3 Zrotation Yrotation Xrotation
					End Site
					{
						OFFSET 0.000000 0.000000 0.000000
					}
				}
			}
		}
	}
	JOINT lowerback
	{
		OFFSET 0.004439 0.124404 -0.038385
		CHANNELS 3 Zrotation Yrotation Xrotation
		JOINT upperback
		{
			OFFSET 0.004488 0.137956 0.026820
			CHANNELS 3 Zrotation Yrotation Xrotation
			JOINT chest
			{
				OFFSET -0.002265 0.056032 0.002855
				CHANNELS 3 Zrotation Yrotation Xrotation
				JOINT lowerneck
				{
					OFFSET -0.013390 0.211636 -0.033468
					CHANNELS 3 Zrotation Yrotation Xrotation
					JOINT upperneck
					{
						OFFSET 0.010113 0.088937 0.050410
						CHANNELS 3 Zrotation Yrotation Xrotation
						End Site
						{
							OFFSET 0.000000 0.000000 0.000000
						}
					}
				}
				JOINT lclavicle
				{
					OFFSET 0.071702 0.114000 -0.018898
					CHANNELS 3 Zrotation Yrotation Xrotation
					JOINT lshoulder
					{
						OFFSET 0.122921 0.045205 -0.019046
						CHANNELS 3 Zrotation Yrotation Xrotation
						JOINT lelbow
						{
							OFFSET 0.255332 -0.015649 -0.022946
							CHANNELS 3 Zrotation Yrotation Xrotation
							JOINT lwrist
							{
								OFFSET 0.265709 0.012698 -0.007375
								CHANNELS 3 Zrotation Yrotation Xrotation
								End Site
								{
									OFFSET 0.000000 0.000000 0.000000
								}
							}
						}
					}
				}
				JOINT rclavicle
				{
					OFFSET -0.082954 0.112472 -0.023707
					CHANNELS 3 Zrotation Yrotation Xrotation
					JOINT rshoulder
					{
						OFFSET -0.113228 0.046853 -0.008472
						CHANNELS 3 Zrotation Yrotation Xrotation
						JOINT relbow
						{
							OFFSET -0.260127 -0.014369 -0.031269
							CHANNELS 3 Zrotation Yrotation Xrotation
							JOINT rwrist
							{
								OFFSET -0.269108 0.006794 -0.006027
								CHANNELS 3 Zrotation Yrotation Xrotation
								End Site
								{
									OFFSET 0.000000 0.000000 0.000000
								}
							}
						}
					}
				}
			}
		}
	}
}
MOTION
Frames: 16
Frame Time: 0.033333
-0.817234 0.299142 0.980667 89.439201 1.037807 88.816624 3.974604 -0.252654 -15.938279 -5.849229 3.703928 24.388763 3.708509 11.273536 -11.528723 0.000000 -0.000000 0.000000 -3.571790 -1.210567 -16.222090 3.396664 -4.853270 24.112512 0.677676 -7.008079 -9.161279 0.000000 -0.000000 0.000000 -0.189291 1.683742 19.780964 2.289592 -3.732140 6.749389 0.805936 -1.451996 1.825867 -0.487058 1.645772 8.937170 1.598522 -2.200849 12.504049 -19.827574 -6.278018 1.596448 -60.889629 -16.518442 15.022144 5.658591 -26.689846 -2.460394 -0.602850 -7.100316 -5.165400 22.582996 9.773467 2.180402 56.338775 16.108334 14.650287 -12.201144 27.630303 -6.601187 2.548494 5.951191 -1.793757 
-0.821811 0.299671 0.976038 89.422524 1.093897 88.743849 4.226655 -0.249417 -17.258375 -6.136036 3.939968 26.462159 3.936228 11.396594 -12.227944 0.000000 -0.000000 0.000000 -3.617348 -1.108308 -17.725038 3.355862 -5.075470 26.462934 0.409575 -7.048664 -9.936288 0.000000 -0.000000 0.000000 -0.137882 1.626986 21.212670 2.330043 -3.632294 6.463641 0.874865 -1.424322 2.009422 -0.415040 1.673361 8.100496 1.640163 -2.204466 11.676362 -19.626141 -6.276848 1.414632 -60.677769 -16.169204 14.748297 5.958516 -27.763788 -3.049003 -0.204746 -7.042845 -5.801268 22.392585 9.793704 1.973548 56.084456 15.895264 14.349872 -12.642941 28.758102 -6.896256 2.368130 6.140447 -2.010682 
-0.827187 0.300087 0.970787 89.329771 1.111859 88.759466 4.495170 -0.223927 -18.729027 -6.420196 4.314037 28.490812 4.131367 11.478277 -12.838446 0.000000 -0.000000 0.000000 -3.703383 -0.989477 -19.356154 3.269982 -5.334400 28.736276 0.149243 -7.038579 -10.604763 0.000000 -0.000000 0.000000 -0.111970 1.599025 22.720126 2.334017 -3.524373 6.265686 0.934784 -1.387931 2.172204 -0.364213 1.773317 7.172252 1.695596 -2.177846 10.842099 -19.427871 -6.376621 1.272109 -60.500220 -15.879494 14.463504 6.318122 -28.567893 -3.716777 0.209325 -7.072346 -6.475112 22.188801 9.902965 1.852645 55.923529 15.751820 14.069025 -13.143871 29.877513 -7.249843 2.140695 6.363255 -2.326550 
-0.833198 0.300755 0.965262 89.226689 1.122799 88.819569 4.708116 -0.196998 -20.306067 -6.651791 4.637849 30.540703 4.349529 11.604779 -13.377753 0.000000 -0.000000 0.000000 -3.789748 -0.860642 -21.029238 3.151421 -5.536977 30.913954 -0.097681 -7.061819 -11.194009 0.000000 -0.000000 0.000000 -0.034520 1.551634 24.422466 2.313948 -3.442210 6.012554 0.980916 -1.351405 2.318131 -0.402854 1.790296 6.229090 1.770238 -2.092554 9.909227 -19.336568 -6.514013 1.166951 -60.332918 -15.559273 14.191311 6.752516 -29.126671 -4.457739 0.560154 -7.051575 -7.084092 21.979696 10.022266 1.769712 55.828692 15.571622 13.806265 -13.669688 31.021470 -7.587047 1.969176 6.568911 -2.636614 
-0.839703 0.301450 0.959234 89.189717 1.117564 89.000942 4.860600 -0.231253 -22.097863 -6.768721 4.998453 32.636646 4.576173 11.715204 -13.874030 0.000000 -0.000000 0.000000 -3.910873 -0.728320 -22.914681 3.019120 -5.738253 33.170149 -0.324187 -7.147830 -11.770856 0.000000 -0.000000 0.000000 0.043559 1.476382 26.189619 2.297019 -3.418265 5.707596 1.035246 -1.322456 2.439810 -0.504022 1.791237 5.301721 1.908190 -2.007032 8.797451 -19.178309 -6.678567 1.100051 -60.365866 -15.171142 13.984615 7.278618 -29.463852 -5.299680 0.777887 -6.955484 -7.673348 21.676247 10.157187 1.720913 55.882673 15.265776 13.597725 -14.238931 32.244916 -7.923390 1.862225 6.749434 -3.036972 
-0.846504 0.301974 0.952370 89.191667 1.076194 89.333219 4.992986 -0.292323 -24.144348 -6.841084 5.411515 34.791689 4.826934 11.803383 -14.342036 0.000000 -0.000000 0.000000 -4.065078 -0.622133 -25.070313 2.844717 -5.954304 35.553349 -0.579420 -7.257933 -12.361736 0.000000 -0.000000 0.000000 0.072136 1.413908 27.928865 2.281112 -3.419705 5.384857 1.084072 -1.310467 2.515017 -0.593529 1.793175 4.306431 2.093002 -1.907107 7.658072 -18.985601 -6.796262 1.007613 -60.482619 -14.672954 13.890228 7.710705 -29.638308 -6.088896 0.962864 -6.853566 -8.195107 21.403132 10.257152 1.687126 55.979674 14.846614 13.460591 -14.722685 33.470709 -8.184627 1.750645 6.959046 -3.390931 
-0.854233 0.302031 0.944567 89.052492 1.325728 89.644087 5.547675 -0.045892 -26.462259 -6.255626 6.508818 37.506964 3.871304 10.532255 -15.635311 0.000000 -0.000000 0.000000 -3.862174 -0.095593 -27.486875 1.813413 -6.668152 38.555604 1.616016 -6.298570 -13.933839 0.000000 -0.000000 0.000000 0.095528 0.991772 31.389711 2.523558 -2.433792 0.220638 1.132075 -1.403618 6.367592 -0.417571 2.884250 0.939310 1.252020 -3.536770 8.482315 -18.611044 -6.414315 0.974959 -60.467204 -14.536271 12.135478 4.698717 -30.904185 2.836416 7.384426 -4.478413 -17.368415 20.092659 8.560899 0.619302 57.697825 14.740649 14.917061 -15.650185 35.589540 -5.183500 -0.541450 3.902954 -6.135521 
-0.861051 0.302894 0.936480 89.053948 1.264696 90.202666 5.743754 -0.119745 -28.893869 -6.218073 7.004273 39.807810 4.011661 10.482890 -16.075260 0.000000 -0.000000 0.000000 -4.145557 0.074927 -29.923871 1.527811 -7.003820 41.045304 1.534638 -6.270046 -14.601052 0.000000 -0.000000 0.000000 0.113968 0.859925 33.115047 2.496419 -2.312262 -0.403006 1.125137 -1.439861 6.689056 -0.505087 2.993228 -0.335817 1.340471 -3.624481 7.465646 -18.452294 -6.241647 0.947443 -60.761559 -13.953030 11.897948 4.559684 -30.961031 3.561818 7.788997 -4.334102 -18.561101 19.638924 8.313832 0.428632 58.346308 14.114588 15.100251 -16.259728 36.707353 -4.836352 -0.512353 3.896839 -6.832691 
-0.867402 0.303441 0.927995 89.073129 1.212991 90.767034 5.990346 -0.176044 -31.275685 -6.165015 7.517963 42.017254 4.116563 10.463192 -16.480896 0.000000 -0.000000 0.000000 -4.404295 0.204775 -32.317841 1.326615 -7.231856 43.409225 1.430619 -6.351371 -15.152966 0.000000 -0.000000 0.000000 0.127160 0.773835 34.713983 2.464662 -2.218128 -0.796724 1.162954 -1.486822 6.769796 -0.674707 2.987996 -1.361974 1.514610 -3.591073 6.286973 -18.458655 -6.120177 1.035160 -60.894471 -13.346094 11.686795 4.441444 -30.831331 3.579089 7.762591 -4.134561 -19.111845 19.385777 8.160463 0.475817 58.633561 13.608020 15.030423 -16.437485 37.292821 -4.667553 -0.508178 3.872562 -7.062507 
-0.872981 0.303698 0.919454 89.084530 1.189925 91.262507 6.245857 -0.213989 -33.512676 -6.103184 7.923020 44.149062 4.216479 10.508458 -16.851071 0.000000 -0.000000 0.000000 -4.666187 0.335402 -34.509963 1.139718 -7.535142 45.608761 1.350870 -6.422402 -15.663515 0.000000 -0.000000 0.000000 0.138482 0.702820 36.267371 2.428299 -2.108560 -1.180921 1.230577 -1.517668 6.838162 -0.867914 2.928144 -2.261244 1.707204 -3.491048 5.143853 -18.508514 -6.015686 1.199299 -61.078160 -12.691624 11.496729 4.221515 -30.481522 3.659784 8.071285 -4.010609 -19.420352 19.189239 8.076592 0.592677 58.804739 13.121661 14.851639 -16.311889 37.361537 -4.408567 -0.684792 3.870751 -7.064924 
-0.877796 0.303757 0.910840 89.135959 1.226008 91.686481 6.516049 -0.285287 -35.642111 -6.023228 8.173951 46.296187 4.318352 10.646664 -17.253654 0.000000 -0.000000 0.000000 -4.883977 0.432683 -36.539526 0.989457 -7.846195 47.721685 1.316748 -6.516520 -16.168782 0.000000 -0.000000 0.000000 0.210655 0.625450 37.765489 2.403610 -1.989006 -1.625713 1.312547 -1.547017 6.967176 -1.074050 2.854216 -3.108293 1.896659 -3.379877 4.088282 -18.531354 -5.841686 1.369516 -61.395070 -11.994915 11.364862 3.776572 -29.882006 3.982605 8.651112 -3.967315 -19.624369 18.951248 7.935209 0.694015 58.989115 12.602326 14.632284 -15.952394 37.112242 -4.048539 -0.962844 3.831931 -6.989808 
-0.882017 0.303546 0.902022 89.233500 1.294725 92.123055 6.833050 -0.424948 -37.769103 -5.897128 8.423811 48.456540 4.416916 10.826570 -17.679570 0.000000 -0.000000 0.000000 -5.067608 0.507398 -38.569113 0.905032 -8.110970 49.832111 1.248837 -6.700770 -16.665560 0.000000 -0.000000 0.000000 0.278057 0.570195 39.106174 2.415735 -1.848853 -2.065801 1.408718 -1.600012 7.113743 -1.219040 2.781788 -3.915452 2.073344 -3.291110 3.068000 -18.595337 -5.549370 1.593259 -61.728867 -11.242840 11.288655 3.230155 -29.336246 4.406104 8.935174 -3.959999 -20.022560 18.791183 7.675195 0.790029 59.088165 12.067032 14.435223 -15.451950 36.686172 -3.622321 -1.138104 3.722034 -6.903576 
-0.885550 0.303105 0.893286 89.375954 1.378442 92.556531 7.149058 -0.582033 -39.808386 -5.694140 8.646891 50.509452 4.504728 10.982336 -18.061467 0.000000 -0.000000 0.000000 -5.279141 0.603864 -40.467478 0.826269 -8.443294 51.801586 1.179826 -6.907257 -17.127797 0.000000 -0.000000 0.000000 0.343669 0.502739 40.339411 2.438410 -1.694470 -2.463896 1.497035 -1.654228 7.237586 -1.317228 2.697022 -4.666844 2.247944 -3.193430 2.063236 -18.736772 -5.228055 1.857062 -62.005101 -10.481785 11.229309 2.617545 -28.772491 4.889616 9.147218 -3.997350 -20.440087 18.720301 7.383180 0.947882 59.106366 11.557843 14.203034 -14.864851 36.053772 -3.146706 -1.454680 3.597862 -6.632163 
-0.888397 0.302489 0.885077 89.517372 1.449677 92.927138 7.434539 -0.749819 -41.638419 -5.487667 8.808505 52.388170 4.558627 11.142205 -18.445537 0.000000 -0.000000 0.000000 -5.502759 0.688552 -42.156062 0.742031 -8.791312 53.599019 1.135027 -7.074181 -17.576639 0.000000 -0.000000 0.000000 0.420210 0.437660 41.504118 2.442535 -1.557391 -2.772045 1.560385 -1.692060 7.291976 -1.406790 2.611050 -5.324791 2.432438 -3.120461 1.165618 -18.949374 -4.990029 2.162728 -62.215221 -9.691873 11.152192 2.116796 -28.168223 5.379270 9.133151 -4.109582 -20.466546 18.642484 7.216279 1.182145 59.164230 10.962231 13.951950 -14.444210 35.556834 -3.005799 -1.427864 3.542439 -6.936913 
-0.890597 0.301646 0.877496 89.640725 1.515132 93.281074 7.697134 -0.845428 -43.282874 -5.436781 8.861201 54.062196 4.656840 11.376480 -18.858052 0.000000 -0.000000 0.000000 -5.694374 0.749913 -43.682432 0.736789 -9.065711 55.213964 1.059010 -7.284470 -18.086599 0.000000 -0.000000 0.000000 0.480604 0.398023 42.517037 2.447493 -1.411045 -3.057097 1.607352 -1.717845 7.355020 -1.448484 2.526675 -5.881678 2.588597 -3.126823 0.444599 -19.174115 -4.784962 2.399658 -62.408202 -8.971867 11.124191 1.637763 -27.397265 6.022946 9.109593 -4.044119 -20.227528 18.658719 7.075325 1.376182 59.151219 10.410670 13.707459 -13.913489 34.837355 -2.661728 -1.486175 3.449877 -6.955571 
-0.892109 0.300630 0.870834 89.704823 1.548613 93.603895 7.958158 -0.871774 -44.660526 -5.420619 8.976936 55.497355 4.697967 11.601498 -19.403012 0.000000 -0.000000 0.000000 -5.875115 0.825912 -45.010609 0.766864 -9.275815 56.636838 1.039580 -7.466765 -18.698435 0.000000 -0.000000 0.000000 0.475077 0.411745 43.438105 2.440719 -1.255133 -3.326341 1.663030 -1.725980 7.421957 -1.438916 2.501795 -6.401194 2.667310 -3.188973 -0.139174 -19.420007 -4.610593 2.539175 -62.540600 -8.373257 11.084392 1.211507 -26.549085 6.722593 8.765482 -3.966891 -19.752470 18.734506 6.916662 1.484141 59.112433 9.962554 13.474644 -13.352129 34.054230 -2.264949 -1.330494 3.297842 -6.879339 
